<svg xmlns="http://www.w3.org/2000/svg" viewBox="0 0 2048 2048" preserveAspectRatio="xMidYMid meet" role="img" aria-label="ZipOrZoom logo">
<title>ZipOrZoom</title>
<defs>
  <linearGradient id="zzMain" gradientUnits="userSpaceOnUse" x1="320" y1="360" x2="1680" y2="1400">
    <stop offset="0%" stop-color="#8B5CF6"/>
    <stop offset="55%" stop-color="#3B82F6"/>
    <stop offset="100%" stop-color="#06B6D4"/>
  </linearGradient>
  <linearGradient id="zzAccent" gradientUnits="userSpaceOnUse" x1="700" y1="400" x2="1700" y2="1400">
    <stop offset="0%" stop-color="#06B6D4"/>
    <stop offset="100%" stop-color="#3B82F6"/>
  </linearGradient>
</defs>
<path fill="url(#zzAccent)" stroke="url(#zzAccent)" stroke-width="10" stroke-linejoin="round" stroke-linecap="round" d="M 1324.03 399.932 L 1626.81 400.03 C 1496.59 568.532 1365.32 736.21 1232.99 903.055 C 1182.75 966.458 1132.88 1030.15 1083.38 1094.14 C 1112.28 1093.47 1143.53 1094.05 1172.71 1094.05 L 1345.47 1094.03 C 1341.89 1083.64 1337.89 1066.23 1334.93 1054.99 C 1327.27 1025.75 1319.84 996.457 1312.63 967.106 C 1323.12 973.978 1335.17 980.65 1346.03 987.22 C 1373.37 1003.77 1400.81 1020.17 1428.32 1036.43 C 1516 1088.72 1606.68 1141.62 1693.45 1195.07 L 1370.37 1389.58 C 1352.92 1400.41 1330.91 1414.14 1313.01 1423.6 C 1321.95 1381.75 1335.97 1339.24 1345.24 1297.31 C 1285.96 1295.48 1218.43 1297.1 1158.38 1297.1 L 748.279 1297.03 L 827.983 1168.98 C 841.323 1169.89 852.501 1169.57 865.214 1165.13 C 878.195 1160.7 889.689 1152.75 898.41 1142.16 C 909.642 1128.27 917.3 1105.04 924.753 1088.15 C 936.205 1062.21 946.535 1034.34 958.78 1008.83 C 994.752 987.249 1022.04 971.473 1020.52 924.744 C 1019.5 893.382 1008.64 875.508 986.519 854.067 L 991.92 847.561 L 1020.47 865.672 L 1038.73 837.929 L 1009.29 818.801 L 1026.96 791.427 C 1036.68 797.97 1046.52 804.321 1056.49 810.478 C 1061.53 803.706 1069.37 790.417 1074.13 782.808 C 1065.76 776.846 1054.04 769.798 1045.16 764.166 C 1049.89 755.199 1056.76 745.237 1062.37 736.623 C 1072.38 742.376 1082.69 749.086 1092.51 755.242 C 1098.5 745.994 1104.63 736.832 1110.88 727.761 C 1100.86 721.416 1090.8 715.122 1080.71 708.879 C 1085.43 700.608 1093.15 689.297 1098.47 681.034 L 1128.83 700.317 L 1146.37 672.285 C 1136.81 665.798 1126.4 659.287 1116.67 652.975 C 1122.73 644.315 1128.4 634.759 1134.55 625.821 C 1144.36 632.278 1154.27 638.594 1164.26 644.769 L 1182.44 617.337 C 1174.17 611.349 1162 604.214 1153 598.15 C 1157.97 589.309 1164.66 579.202 1170.12 570.495 C 1180.4 576.579 1190.36 583.137 1200.4 589.62 C 1206.22 580.207 1212.65 570.869 1218.82 561.657 C 1208.79 555.583 1198.5 548.83 1188.58 542.497 C 1194.5 533.248 1200.53 524.068 1206.67 514.959 L 1236.29 534.229 L 1254.39 506.127 C 1247.12 500.676 1232.7 492.044 1224.57 486.883 C 1230.37 478.545 1236.68 468.209 1242.36 459.564 L 1272.67 479.373 C 1289.83 453.008 1306.15 425.912 1324.03 399.932 z"/>
<path fill="url(#zzMain)" stroke="url(#zzMain)" stroke-width="10" stroke-linejoin="round" stroke-linecap="round" d="M 574.611 391.989 L 1258.98 391.981 C 1249.55 409.096 1234.35 432.175 1223.72 449.797 L 1192.56 431.797 L 1175.58 459.869 C 1184.38 465.565 1196.58 472.238 1205.85 477.645 C 1200.23 486.729 1194.79 496.275 1189.38 505.512 L 1158.25 487.579 L 1141.09 515.667 C 1151.03 521.443 1160.92 527.302 1170.76 533.245 C 1165.59 542.865 1160.19 551.828 1154.58 561.183 C 1145.46 556.64 1133.13 548.918 1124.03 543.554 L 1106.47 571.766 C 1116.43 577.975 1126.55 583.921 1136.82 589.599 C 1131.37 598.959 1125.75 608.22 1119.96 617.376 C 1110.16 612.22 1099.43 605.449 1089.85 599.699 C 1084.16 609.104 1078.38 618.447 1072.49 627.726 C 1080.36 633.057 1094.19 640.516 1102.8 645.45 C 1097.42 654.667 1091.73 663.958 1086.23 673.128 C 1076.15 667.372 1066.16 661.458 1056.26 655.388 L 1038.54 683.648 C 1048.63 689.795 1058.55 694.523 1068.52 701.303 C 1063.25 710.538 1057.8 719.667 1052.16 728.684 C 1042.12 723.845 1031.03 716.95 1021.3 711.23 C 1015.71 720.821 1009.95 730.308 1004.01 739.686 L 1034.34 757.196 C 1029.28 766.764 1023.84 775.828 1018.33 785.134 C 1008.28 779.711 997.596 773.061 987.332 767.368 C 981.825 776.8 976.128 786.12 970.243 795.321 C 979.43 801.221 991.008 807.638 1000.57 813.22 C 994.533 822.88 989.837 830.735 984.443 840.795 C 974.553 835.859 962.943 828.601 952.82 823.118 C 950.2 827.907 947.585 833.221 945.071 838.109 C 889.11 833.341 849.395 864.23 848.436 921.668 C 848.055 944.498 834.126 960.229 821.691 978.145 L 785.089 1030.84 C 762.815 1062.97 751.758 1081.64 765.959 1121.14 L 766.619 1123.38 C 762.48 1133.6 738.447 1171.59 731.714 1182.53 L 666.14 1289.99 L 354.163 1289.87 L 892.965 595.193 L 443.079 595.125 C 457.354 575.103 474.236 547.251 487.812 526.227 L 574.611 391.989 z"/>
<path fill="#06B6D4" d="M 870.474 924.394 C 872.211 906.134 875.774 885.495 890.944 873.364 C 919.994 850.133 961.356 855.154 984.529 884.267 C 995.75 898.405 1000.83 916.457 998.617 934.371 C 995.49 958.538 980.774 969.9 960.987 980.952 C 961.271 962.688 958.779 955.124 945.113 941.962 L 939.783 950.364 C 945.262 958.27 947.2 961.005 949.19 970.746 C 946.817 980.781 939.184 997.424 934.896 1007.43 L 911.681 1061.69 C 903.448 1081.15 895.665 1102.18 886.457 1121.06 C 875.726 1143.06 846.815 1151.06 824.488 1145.48 C 809.663 1141.64 796.972 1132.07 789.207 1118.87 C 783.617 1109.42 778.482 1085.83 783.757 1076.04 C 806.869 1033.13 839.282 994.148 865.951 953.236 C 877.798 935.14 882.649 927.624 906.036 930.363 C 907.561 928.936 910.369 924.247 911.67 922.232 C 898.775 917.349 889.23 915.889 875.969 921.715 C 874.11 922.55 872.277 923.443 870.474 924.394 z"/>
<path fill="#ffffff" d="M 916.06 923.196 C 920.35 915.706 933.144 890.525 940.939 885.92 C 947.464 882.066 966.659 893.57 961.024 903.739 C 959.766 906.689 954.886 917.149 952.604 919.686 C 945.27 927.838 927.43 974.136 914.229 968.914 C 893.936 960.887 899.412 950.931 908.101 936.88 L 906.036 930.363 C 907.561 928.936 910.369 924.247 911.67 922.232 L 916.06 923.196 z"/>
<path fill="#0E7490" d="M 911.67 922.232 L 916.06 923.196 C 913.509 927.691 910.883 932.557 908.101 936.88 L 906.036 930.363 C 907.561 928.936 910.369 924.247 911.67 922.232 z"/>
<path fill="#ffffff" d="M 832.004 1059.43 C 849.97 1056.18 867.167 1068.11 870.418 1086.08 C 873.668 1104.04 861.743 1121.24 843.779 1124.5 C 825.807 1127.75 808.599 1115.82 805.347 1097.85 C 802.094 1079.88 814.03 1062.67 832.004 1059.43 z"/>
<path fill="#ffffff" d="M 892.732 949.833 C 893.018 952.67 891.571 957.792 891.17 960.982 C 889.826 971.659 903.794 980.646 913.09 981.106 C 919.444 981.42 926.42 972.659 930.805 968.362 C 927.48 979.551 926.144 983.24 919.657 992.847 C 915.703 997.165 912.262 999.133 906.355 999.724 C 892.873 1001.07 878.951 989.627 878.687 975.838 C 878.49 965.546 885.746 956.771 892.732 949.833 z"/>
<path fill="#1e1e2a" d="M 1479.54 1485.31 C 1603.75 1470.69 1627.09 1637.37 1508.26 1656.69 C 1481.95 1659.01 1459.06 1655.96 1436.85 1640.59 C 1398.5 1614.05 1391.17 1556.7 1418.27 1519.66 C 1433.38 1499.03 1454.76 1489 1479.54 1485.31 z"/>
<path fill="#ffffff" d="M 1486.91 1518.56 C 1515.88 1514.78 1542.43 1535.22 1546.18 1564.19 C 1549.94 1593.17 1529.48 1619.69 1500.5 1623.43 C 1471.56 1627.15 1445.06 1606.72 1441.31 1577.78 C 1437.56 1548.84 1457.97 1522.33 1486.91 1518.56 z"/>
<path fill="#1e1e2a" d="M 1277.87 1485.34 C 1303.11 1482.43 1327.8 1486.72 1348.67 1501.8 C 1366.7 1514.92 1378.76 1534.67 1382.2 1556.7 C 1386.05 1579.56 1380.6 1603 1367.07 1621.82 C 1351.4 1643.38 1329.87 1652.83 1304.24 1656.72 C 1280.08 1658.97 1254.8 1655.21 1234.6 1640.99 C 1216.26 1627.97 1203.9 1608.16 1200.26 1585.98 C 1191.58 1533 1226.43 1493.16 1277.87 1485.34 z"/>
<path fill="#ffffff" d="M 1284.81 1518.53 C 1303.67 1516.22 1322.32 1524.23 1333.64 1539.49 C 1344.96 1554.75 1347.21 1574.92 1339.53 1592.3 C 1331.85 1609.68 1315.42 1621.6 1296.51 1623.5 C 1267.71 1626.39 1241.94 1605.57 1238.74 1576.8 C 1235.53 1548.03 1256.08 1522.04 1284.81 1518.53 z"/>
<path fill="#1e1e2a" d="M 736.481 1485.3 C 762.209 1482.53 786.992 1486.67 808.155 1502.28 C 825.993 1515.46 837.841 1535.21 841.077 1557.16 C 849.026 1609.9 814.851 1649.27 763.433 1656.68 C 740.503 1660.04 712.56 1654.3 693.462 1640.78 C 675.365 1627.85 663.146 1608.26 659.492 1586.31 C 650.952 1533.35 684.698 1493.11 736.481 1485.3 z"/>
<path fill="#ffffff" d="M 743.327 1518.54 C 772.343 1514.78 798.888 1535.31 802.54 1564.34 C 806.191 1593.37 785.559 1619.84 756.517 1623.39 C 727.623 1626.92 701.317 1606.41 697.684 1577.53 C 694.051 1548.65 714.46 1522.27 743.327 1518.54 z"/>
<path fill="#1e1e2a" d="M 869.873 1487.01 C 901.06 1486.91 938.424 1484.87 968.659 1489.26 C 1008.82 1495.09 1028.76 1538.75 1011.89 1574.19 C 1005.88 1586.81 995.915 1593.49 984.076 1599.96 C 993.188 1615.4 1011.1 1639.71 1021.88 1655.1 L 1006.5 1655.05 L 978.026 1655.02 C 967.016 1639.24 956.137 1623.36 945.39 1607.4 C 933.306 1607.31 921.221 1607.31 909.137 1607.41 L 909.106 1655.02 L 869.894 1655.03 L 869.873 1487.01 z"/>
<path fill="#ffffff" d="M 909.188 1519.11 C 933.036 1518.81 977.085 1512.23 977.564 1546.14 C 977.694 1555.36 975.483 1560.41 969.745 1567.35 C 955.209 1578.75 928.188 1575.43 909.105 1575.26 L 909.188 1519.11 z"/>
<path fill="#1e1e2a" d="M 1613.22 1487 L 1647.55 1486.93 L 1710.74 1590.53 C 1731.21 1555.87 1751.93 1521.35 1772.88 1486.97 L 1806.99 1487.05 L 1807.01 1654.99 L 1769.31 1655.03 L 1769.54 1616.68 C 1769.34 1596.07 1769.28 1575.47 1769.34 1554.86 C 1755.45 1574.99 1733.69 1615.56 1720.03 1638.45 C 1713.87 1638.56 1707.24 1638.4 1701.03 1638.37 C 1684.95 1614.56 1666.49 1581.28 1650.92 1556.04 L 1650.97 1655.02 L 1613.2 1654.99 L 1613.22 1487 z"/>
<path fill="#1e1e2a" d="M 491.163 1487 C 516.62 1487.1 542.096 1486.72 567.548 1486.9 C 583.242 1487 597.223 1489.6 611.124 1496.98 C 639.904 1512.26 646.92 1550.64 631.282 1577.59 C 622.012 1593.56 607.925 1601.15 590.752 1605.57 C 576.073 1608.61 547.25 1607.74 531.065 1607.78 L 531.036 1655.02 L 491.132 1655.07 L 491.163 1487 z"/>
<path fill="#ffffff" d="M 531.103 1519.22 C 553.75 1518.82 598.383 1512.34 590.885 1567.92 C 577.333 1578.26 548.689 1575.44 531.06 1575.38 L 531.103 1519.22 z"/>
<path fill="#1e1e2a" d="M 243.226 1486.98 L 385.694 1487 L 385.478 1512.64 C 355.545 1548.06 321.697 1586.9 293.041 1622.88 L 389.289 1622.83 L 389.219 1655.15 L 240.589 1655 L 240.719 1629.3 C 248.808 1618.12 264.296 1600.96 273.557 1590.02 C 293.534 1566.21 313.676 1542.53 333.982 1519 L 243.118 1519.02 L 243.226 1486.98 z"/>
<path fill="#1e1e2a" d="M 1040.43 1486.99 L 1182.9 1487.06 L 1182.85 1511.9 C 1155.02 1547.79 1119.57 1587.36 1090.06 1622.85 L 1186.42 1622.92 C 1186.59 1633.68 1186.64 1644.43 1186.57 1655.19 L 1037.32 1655.08 C 1037.85 1647.44 1037.69 1637.24 1037.8 1629.39 C 1064.72 1594.24 1101.74 1554.1 1130.59 1519.05 L 1040.25 1519.06 L 1040.43 1486.99 z"/>
<path fill="#1e1e2a" d="M 414.022 1487 L 453.965 1654.96 C 441.316 1655.41 426.704 1655.07 414.103 1655.1 L 414.022 1487 z"/>
</svg>
